<?xml version="1.0" encoding="UTF-8" standalone="no"?>
<!DOCTYPE svg PUBLIC "-//W3C//DTD SVG 1.1//EN"
 "http://www.w3.org/Graphics/SVG/1.1/DTD/svg11.dtd">
<!-- Generated by graphviz version 2.26.3 (20100126.1600)
 -->
<!-- Title: Vela Pages: 1 -->
<svg width="1162pt" height="653pt"
 viewBox="0.00 0.00 1161.77 653.00" xmlns="http://www.w3.org/2000/svg" xmlns:xlink="http://www.w3.org/1999/xlink">
<g id="graph1" class="graph" transform="scale(1 1) rotate(0) translate(4 649)">
<title>Vela</title>
<polygon fill="white" stroke="white" points="-4,5 -4,-649 1158.77,-649 1158.77,5 -4,5"/>
<g id="graph2" class="cluster"><title>cluster0</title>
<polygon fill="silver" stroke="silver" points="219.775,-381 219.775,-461 957.775,-461 957.775,-381 219.775,-381"/>
<text text-anchor="middle" x="588.775" y="-444.4" font-family="Times Roman,serif" font-size="14.00">Vela</text>
</g>
<g id="graph3" class="cluster"><title>cluster1</title>
<polygon fill="seagreen" stroke="seagreen" points="33.775,-198 33.775,-373 395.775,-373 395.775,-198 33.775,-198"/>
<text text-anchor="middle" x="214.775" y="-356.4" font-family="Times Roman,serif" font-size="14.00">Velagent</text>
</g>
<g id="graph4" class="cluster"><title>cluster2</title>
<polygon fill="mintcream" stroke="mintcream" points="698.775,-469 698.775,-549 990.775,-549 990.775,-469 698.775,-469"/>
<text text-anchor="middle" x="844.775" y="-532.4" font-family="Times Roman,serif" font-size="14.00">Vela Rich ML</text>
</g>
<g id="graph5" class="cluster"><title>cluster3</title>
<polygon fill="mintcream" stroke="mintcream" points="704.775,-557 704.775,-637 984.775,-637 984.775,-557 704.775,-557"/>
<text text-anchor="middle" x="844.775" y="-620.4" font-family="Times Roman,serif" font-size="14.00">Vela Div ML</text>
</g>
<g id="graph6" class="cluster"><title>cluster4</title>
<polygon fill="mintcream" stroke="mintcream" points="132.775,-8 132.775,-86 218.775,-86 218.775,-8 132.775,-8"/>
<text text-anchor="middle" x="175.775" y="-69.4" font-family="Times Roman,serif" font-size="14.00">Vela Veil</text>
</g>
<g id="graph7" class="cluster"><title>cluster5</title>
<polygon fill="#f3e5ab" stroke="#f3e5ab" points="100.775,-94 100.775,-190 372.775,-190 372.775,-94 100.775,-94"/>
<text text-anchor="middle" x="236.775" y="-173.4" font-family="Times Roman,serif" font-size="14.00">Vela Vanilla</text>
</g>
<g id="graph8" class="cluster"><title>cluster6</title>
<polygon fill="gray" stroke="gray" points="671.775,-286 671.775,-366 1145.77,-366 1145.77,-286 671.775,-286"/>
<text text-anchor="middle" x="908.775" y="-349.4" font-family="Times Roman,serif" font-size="14.00">Document</text>
</g>
<g id="graph9" class="cluster"><title>cluster7</title>
<polygon fill="gray" stroke="gray" points="523.775,-102 523.775,-182 717.775,-182 717.775,-102 523.775,-102"/>
<text text-anchor="middle" x="620.775" y="-165.4" font-family="Times Roman,serif" font-size="14.00">gui</text>
</g>
<g id="graph10" class="cluster"><title>cluster8</title>
<polygon fill="gray" stroke="gray" points="542.775,-198 542.775,-278 976.775,-278 976.775,-198 542.775,-198"/>
<text text-anchor="middle" x="759.775" y="-261.4" font-family="Times Roman,serif" font-size="14.00">List View</text>
</g>
<g id="graph11" class="cluster"><title>cluster9</title>
<polygon fill="gray" stroke="gray" points="403.775,-198 403.775,-278 504.775,-278 504.775,-198 403.775,-198"/>
<text text-anchor="middle" x="454.275" y="-261.4" font-family="Times Roman,serif" font-size="14.00">shotodol.lua</text>
</g>
<!-- pageMenu -->
<g id="node2" class="node"><title>pageMenu</title>
<polygon fill="none" stroke="black" points="227.775,-390 227.775,-426 615.775,-426 615.775,-390 227.775,-390"/>
<text text-anchor="middle" x="281.275" y="-404.4" font-family="Times Roman,serif" font-size="14.00">PageWindow</text>
<polyline fill="none" stroke="black" points="334.775,-390 334.775,-426 "/>
<text text-anchor="middle" x="402.275" y="-404.4" font-family="Times Roman,serif" font-size="14.00">PageMenuLoader</text>
<polyline fill="none" stroke="black" points="469.775,-390 469.775,-426 "/>
<text text-anchor="middle" x="542.775" y="-404.4" font-family="Times Roman,serif" font-size="14.00">PageContentModel</text>
</g>
<!-- velaRebound -->
<g id="node5" class="node"><title>velaRebound</title>
<polygon fill="none" stroke="black" points="281.775,-339 175.775,-313 281.775,-287 387.775,-313 281.775,-339"/>
<text text-anchor="middle" x="281.775" y="-309.4" font-family="Times Roman,serif" font-size="14.00">VelaRebound</text>
</g>
<!-- pageMenu&#45;&gt;velaRebound -->
<g id="edge30" class="edge"><title>pageMenu:pml&#45;&gt;velaRebound</title>
<path fill="none" stroke="black" d="M401.775,-390C401.775,-359.754 374.438,-340.84 345.859,-329.329"/>
<polygon fill="black" stroke="black" points="346.75,-325.926 336.157,-325.704 344.3,-332.483 346.75,-325.926"/>
</g>
<!-- roopDocument -->
<g id="node16" class="node"><title>roopDocument</title>
<polygon fill="none" stroke="black" points="679.275,-295 679.275,-331 1138.27,-331 1138.27,-295 679.275,-295"/>
<text text-anchor="middle" x="740.275" y="-309.4" font-family="Times Roman,serif" font-size="14.00">RoopDocument</text>
<polyline fill="none" stroke="black" points="801.275,-295 801.275,-331 "/>
<text text-anchor="middle" x="877.275" y="-309.4" font-family="Times Roman,serif" font-size="14.00">AugmentedContent</text>
<polyline fill="none" stroke="black" points="953.275,-295 953.275,-331 "/>
<text text-anchor="middle" x="1045.77" y="-309.4" font-family="Times Roman,serif" font-size="14.00">DocumentContentModel</text>
</g>
<!-- pageMenu&#45;&gt;roopDocument -->
<g id="edge21" class="edge"><title>pageMenu:pcm&#45;&gt;roopDocument:dcm</title>
<path fill="none" stroke="black" d="M616.775,-408C629.291,-408 615.206,-389.067 624.775,-381 693.991,-322.644 1018.93,-417.267 1044.21,-341.151"/>
<polygon fill="black" stroke="black" points="1047.72,-341.416 1045.77,-331 1040.8,-340.352 1047.72,-341.416"/>
</g>
<!-- gui -->
<g id="node18" class="node"><title>gui</title>
<polygon fill="none" stroke="black" points="531.275,-111 531.275,-147 710.275,-147 710.275,-111 531.275,-111"/>
<text text-anchor="middle" x="568.275" y="-125.4" font-family="Times Roman,serif" font-size="14.00">Window</text>
<polyline fill="none" stroke="black" points="605.275,-111 605.275,-147 "/>
<text text-anchor="middle" x="632.775" y="-125.4" font-family="Times Roman,serif" font-size="14.00">Menu</text>
<polyline fill="none" stroke="black" points="660.275,-111 660.275,-147 "/>
<text text-anchor="middle" x="685.275" y="-125.4" font-family="Times Roman,serif" font-size="14.00">Pane</text>
</g>
<!-- pageMenu&#45;&gt;gui -->
<g id="edge25" class="edge"><title>pageMenu:pml&#45;&gt;gui:menu</title>
<path fill="none" stroke="black" d="M401.775,-390C401.775,-321.157 472.167,-336.303 508.775,-278 528.967,-245.84 513.844,-226.643 538.775,-198 567.421,-165.089 622.685,-189.677 631.559,-157.166"/>
<polygon fill="black" stroke="black" points="635.063,-157.345 632.775,-147 628.112,-156.514 635.063,-157.345"/>
</g>
<!-- listview -->
<g id="node20" class="node"><title>listview</title>
<polygon fill="none" stroke="black" points="550.775,-207 550.775,-243 968.775,-243 968.775,-207 550.775,-207"/>
<text text-anchor="middle" x="599.775" y="-221.4" font-family="Times Roman,serif" font-size="14.00">ListWindow</text>
<polyline fill="none" stroke="black" points="648.775,-207 648.775,-243 "/>
<text text-anchor="middle" x="686.275" y="-221.4" font-family="Times Roman,serif" font-size="14.00">ListPane</text>
<polyline fill="none" stroke="black" points="723.775,-207 723.775,-243 "/>
<text text-anchor="middle" x="777.275" y="-221.4" font-family="Times Roman,serif" font-size="14.00">ListViewItem</text>
<polyline fill="none" stroke="black" points="830.775,-207 830.775,-243 "/>
<text text-anchor="middle" x="899.775" y="-221.4" font-family="Times Roman,serif" font-size="14.00">ListContentModel</text>
</g>
<!-- pageMenu&#45;&gt;listview -->
<g id="edge34" class="edge"><title>pageMenu:pw&#45;&gt;listview:lwin</title>
<path fill="none" stroke="black" d="M279.775,-389C279.775,-362.097 375.262,-384.086 399.775,-373 458.328,-346.52 464.41,-324.49 508.775,-278 526.769,-259.145 522.537,-233.135 540.696,-226.559"/>
<polygon fill="black" stroke="black" points="541.427,-229.987 550.775,-225 540.358,-223.069 541.427,-229.987"/>
</g>
<!-- formattedContent -->
<g id="node3" class="node"><title>formattedContent</title>
<polygon fill="none" stroke="black" points="633.275,-390 633.275,-426 950.275,-426 950.275,-390 633.275,-390"/>
<text text-anchor="middle" x="705.275" y="-404.4" font-family="Times Roman,serif" font-size="14.00">FormattedContent</text>
<polyline fill="none" stroke="black" points="777.275,-390 777.275,-426 "/>
<text text-anchor="middle" x="863.775" y="-404.4" font-family="Times Roman,serif" font-size="14.00">FormatedListViewItem</text>
</g>
<!-- formattedContent&#45;&gt;roopDocument -->
<g id="edge14" class="edge"><title>formattedContent:fc&#45;&gt;roopDocument:ac</title>
<path fill="none" stroke="black" d="M704.775,-390C704.775,-312.971 861.028,-402.598 875.677,-341.193"/>
<polygon fill="black" stroke="black" points="879.183,-341.317 876.775,-331 872.224,-340.567 879.183,-341.317"/>
</g>
<!-- formattedContent&#45;&gt;listview -->
<g id="edge19" class="edge"><title>formattedContent:flvi&#45;&gt;listview:lvi</title>
<path fill="none" stroke="black" d="M863.775,-390C863.775,-346.281 697.323,-405.222 667.775,-373 641.642,-344.502 645.972,-317.933 667.775,-286 695.177,-245.867 766.12,-288.178 776.5,-253.029"/>
<polygon fill="black" stroke="black" points="779.986,-253.362 777.775,-243 773.042,-252.479 779.986,-253.362"/>
</g>
<!-- velaResource -->
<g id="node6" class="node"><title>velaResource</title>
<polygon fill="none" stroke="black" points="41.775,-207 41.775,-243 387.775,-243 387.775,-207 41.775,-207"/>
<text text-anchor="middle" x="95.775" y="-221.4" font-family="Times Roman,serif" font-size="14.00">VelaResource</text>
<polyline fill="none" stroke="black" points="149.775,-207 149.775,-243 "/>
<text text-anchor="middle" x="187.775" y="-221.4" font-family="Times Roman,serif" font-size="14.00">VelaVars</text>
<polyline fill="none" stroke="black" points="225.775,-207 225.775,-243 "/>
<text text-anchor="middle" x="306.775" y="-221.4" font-family="Times Roman,serif" font-size="14.00">VelaResourceHandler</text>
</g>
<!-- velaRebound&#45;&gt;velaResource -->
<g id="edge31" class="edge"><title>velaRebound&#45;&gt;velaResource:vrh</title>
<path fill="none" stroke="black" d="M294.421,-290.074C299.363,-279.452 304.273,-266.273 306.065,-253.065"/>
<polygon fill="black" stroke="black" points="309.562,-253.222 306.775,-243 302.579,-252.729 309.562,-253.222"/>
</g>
<!-- velaVanillaModule -->
<g id="node14" class="node"><title>velaVanillaModule</title>
<polygon fill="none" stroke="black" points="108.775,-103 108.775,-155 364.775,-155 364.775,-103 108.775,-103"/>
<text text-anchor="middle" x="178.775" y="-125.4" font-family="Times Roman,serif" font-size="14.00">velaVanillaModule</text>
<polyline fill="none" stroke="black" points="248.775,-103 248.775,-155 "/>
<text text-anchor="middle" x="306.775" y="-138.4" font-family="Times Roman,serif" font-size="14.00">vela/command</text>
<polyline fill="none" stroke="black" points="248.775,-129 364.775,-129 "/>
<text text-anchor="middle" x="306.775" y="-112.4" font-family="Times Roman,serif" font-size="14.00">vela/veil</text>
</g>
<!-- velaResource&#45;&gt;velaVanillaModule -->
<g id="edge32" class="edge"><title>velaResource:vrh&#45;&gt;velaVanillaModule:velac</title>
<path fill="none" stroke="black" d="M306.775,-207C306.775,-187.681 306.775,-180.473 306.775,-165.128"/>
<polygon fill="black" stroke="black" points="310.275,-165 306.775,-155 303.275,-165 310.275,-165"/>
</g>
<!-- velaRich -->
<g id="node8" class="node"><title>velaRich</title>
<polygon fill="none" stroke="black" points="706.275,-478 706.275,-514 983.275,-514 983.275,-478 706.275,-478"/>
<text text-anchor="middle" x="771.775" y="-492.4" font-family="Times Roman,serif" font-size="14.00">VelaRichContent</text>
<polyline fill="none" stroke="black" points="837.275,-478 837.275,-514 "/>
<text text-anchor="middle" x="910.275" y="-492.4" font-family="Times Roman,serif" font-size="14.00">VelaRichDocument</text>
</g>
<!-- velaRich&#45;&gt;formattedContent -->
<g id="edge13" class="edge"><title>velaRich:vrc&#45;&gt;formattedContent:fc</title>
<path fill="none" stroke="black" d="M771.775,-478C771.775,-444.282 718.163,-459.44 706.854,-436.032"/>
<polygon fill="black" stroke="black" points="710.231,-435.082 704.775,-426 703.377,-436.502 710.231,-435.082"/>
</g>
<!-- velaRich&#45;&gt;roopDocument -->
<g id="edge17" class="edge"><title>velaRich:vrd&#45;&gt;roopDocument:rd</title>
<path fill="none" stroke="black" d="M984.775,-496C1007.4,-496 1076.95,-495.87 961.775,-381 892.753,-312.159 750.54,-423.535 740.353,-341.107"/>
<polygon fill="black" stroke="black" points="743.841,-340.784 739.775,-331 736.852,-341.184 743.841,-340.784"/>
</g>
<!-- velaDiv -->
<g id="node10" class="node"><title>velaDiv</title>
<polygon fill="none" stroke="black" points="712.275,-566 712.275,-602 977.275,-602 977.275,-566 712.275,-566"/>
<text text-anchor="middle" x="774.775" y="-580.4" font-family="Times Roman,serif" font-size="14.00">VelaDivContent</text>
<polyline fill="none" stroke="black" points="837.275,-566 837.275,-602 "/>
<text text-anchor="middle" x="907.275" y="-580.4" font-family="Times Roman,serif" font-size="14.00">VelaDivDocument</text>
</g>
<!-- velaDiv&#45;&gt;velaRich -->
<g id="edge12" class="edge"><title>velaDiv:vdc&#45;&gt;velaRich:vrc</title>
<path fill="none" stroke="black" d="M774.775,-566C774.775,-546.648 772.679,-539.49 771.991,-524.139"/>
<polygon fill="black" stroke="black" points="775.487,-523.923 771.775,-514 768.489,-524.072 775.487,-523.923"/>
</g>
<!-- velaDiv&#45;&gt;velaRich -->
<g id="edge16" class="edge"><title>velaDiv:vdd&#45;&gt;velaRich:vrd</title>
<path fill="none" stroke="black" d="M907.775,-566C907.775,-546.648 909.871,-539.49 910.559,-524.139"/>
<polygon fill="black" stroke="black" points="914.061,-524.072 910.775,-514 907.063,-523.923 914.061,-524.072"/>
</g>
<!-- velaVeil -->
<g id="node12" class="node"><title>velaVeil</title>
<polygon fill="none" stroke="black" points="210.775,-52 140.775,-52 140.775,-16 210.775,-16 210.775,-52"/>
<text text-anchor="middle" x="175.775" y="-30.4" font-family="Times Roman,serif" font-size="14.00">VelaVeil</text>
</g>
<!-- velaVeil&#45;&gt;pageMenu -->
<g id="edge24" class="edge"><title>velaVeil&#45;&gt;pageMenu:pml</title>
<path fill="none" stroke="black" d="M147.13,-52.1238C131.191,-63.0561 111.633,-77.9481 96.775,-94 59.4258,-134.352 45.295,-145.252 29.775,-198 7.82104,-272.615 -23.9522,-316.761 29.775,-373 56.124,-400.581 350.038,-356.593 395.801,-381.968"/>
<polygon fill="black" stroke="black" points="392.998,-384.065 401.775,-390 398.615,-379.887 392.998,-384.065"/>
</g>
<!-- velaVanillaModule&#45;&gt;velaVeil -->
<g id="edge28" class="edge"><title>velaVanillaModule:velav&#45;&gt;velaVeil</title>
<path fill="none" stroke="black" d="M306.775,-103C306.775,-63.1221 258.667,-46.2369 220.758,-39.1219"/>
<polygon fill="black" stroke="black" points="221.326,-35.6685 210.881,-37.4391 220.151,-42.569 221.326,-35.6685"/>
</g>
<!-- roopDocument&#45;&gt;listview -->
<g id="edge22" class="edge"><title>roopDocument:dcm&#45;&gt;listview:lcm</title>
<path fill="none" stroke="black" d="M1045.77,-295C1045.77,-229.885 915.307,-302.964 901.037,-252.964"/>
<polygon fill="black" stroke="black" points="904.504,-252.481 899.775,-243 897.56,-253.361 904.504,-252.481"/>
</g>
<!-- listview&#45;&gt;gui -->
<g id="edge35" class="edge"><title>listview:lwin&#45;&gt;gui:win</title>
<path fill="none" stroke="black" d="M599.775,-207C599.775,-180.556 575.275,-177.59 569.15,-157.016"/>
<polygon fill="black" stroke="black" points="572.603,-156.431 567.775,-147 565.668,-157.383 572.603,-156.431"/>
</g>
<!-- listview&#45;&gt;gui -->
<g id="edge37" class="edge"><title>listview:lpane&#45;&gt;gui:pn</title>
<path fill="none" stroke="black" d="M685.775,-207C685.775,-184.083 685.775,-175.937 685.775,-157.175"/>
<polygon fill="black" stroke="black" points="689.275,-157 685.775,-147 682.275,-157 689.275,-157"/>
</g>
<!-- luaHooks -->
<g id="node22" class="node"><title>luaHooks</title>
<polygon fill="none" stroke="black" points="411.775,-207 411.775,-243 485.775,-243 485.775,-207 411.775,-207"/>
<text text-anchor="middle" x="448.775" y="-221.4" font-family="Times Roman,serif" font-size="14.00">vela/veil</text>
</g>
<!-- luaHooks&#45;&gt;velaVanillaModule -->
<g id="edge27" class="edge"><title>luaHooks:vv&#45;&gt;velaVanillaModule:velav</title>
<path fill="none" stroke="black" d="M442.933,-206.51C434.279,-177.841 413.363,-125.11 374.927,-117.046"/>
<polygon fill="black" stroke="black" points="375.081,-113.543 364.775,-116 374.364,-120.507 375.081,-113.543"/>
</g>
</g>
</svg>
